<svg xmlns="http://www.w3.org/2000/svg" viewBox="0 0 760 250" role="img" aria-label="Kampivo — Your campus. Trusted."><g transform="translate(8 0) scale(.88)"><g fill="none" stroke-linecap="round" stroke-linejoin="round"><path d="M42 92v116M42 151h60M42 208l72-67M102 151l72 64" stroke="#082D6A" stroke-width="30"/><path d="M20 55L108 18l92 37-92 37L20 55z" fill="#0B3D91" stroke="none"/><path d="M37 73v46" stroke="#0B3D91" stroke-width="8"/><circle cx="37" cy="124" r="10" fill="#0B3D91" stroke="none"/><path d="M136 67c29 0 45 20 45 43 0 34-39 57-67 75-25 17-41 31-41 53" stroke="#FF7A00" stroke-width="23"/><circle cx="136" cy="67" r="24" fill="#FF7A00" stroke="none"/><circle cx="136" cy="67" r="9" fill="#fff" stroke="none"/></g></g><text x="215" y="145" font-family="Arial,sans-serif" font-size="105" font-weight="800" letter-spacing="-6" fill="#082D6A">Kampiv</text><text x="625" y="145" font-family="Arial,sans-serif" font-size="105" font-weight="800" fill="#FF7A00">o</text><text x="225" y="190" font-family="Arial,sans-serif" font-size="27" font-weight="700" letter-spacing="1.5" fill="#0B3D91">Your campus. Trusted.</text></svg>